<svg xmlns="http://www.w3.org/2000/svg" viewBox="0 0 100 100" fill="none">
  <!-- Outer yellow border circle -->
  <circle cx="50" cy="50" r="48" fill="#F4B400" stroke="#0D47A1" stroke-width="2.5" />
  <!-- Inner dark blue background circle -->
  <circle cx="50" cy="50" r="41" fill="#0D47A1" />
  <!-- Stylized Lotus Petals/Wings (UNY Emblem Style) -->
  <!-- Wings left -->
  <path d="M50 32 C38 32 30 45 30 55 C30 65 38 72 50 72 Z" fill="#F4B400" opacity="0.9" />
  <!-- Wings right -->
  <path d="M50 32 C62 32 70 45 70 55 C70 65 62 72 50 72 Z" fill="#F4B400" opacity="0.9" />
  <!-- Inner blue mask for the wings to make them look like separate petals -->
  <path d="M50 35 C41 35 35 47 35 55 C35 63 41 68 50 68 Z" fill="#0D47A1" />
  <path d="M50 35 C59 35 65 47 65 55 C65 63 59 68 50 68 Z" fill="#0D47A1" />
  <!-- Center star / kartika -->
  <path d="M50 32 L53 43 L66 43 L56 51 L60 64 L50 56 L40 64 L44 51 L34 43 L47 43 Z" fill="#F4B400" />
  <!-- Blue details inside the center star -->
  <circle cx="50" cy="49" r="5" fill="#0D47A1" />
  <circle cx="50" cy="49" r="2" fill="#F4B400" />
  <!-- Five pointed star at the top center -->
  <path d="M50 14 L52 19 L57 19 L53 22 L55 27 L50 24 L45 27 L47 22 L43 19 L48 19 Z" fill="#F4B400" />
</svg>